<?xml version="1.0" standalone="no"?>
<!DOCTYPE svg PUBLIC "-//W3C//DTD SVG 20010904//EN"
 "http://www.w3.org/TR/2001/REC-SVG-20010904/DTD/svg10.dtd">
<svg version="1.0" xmlns="http://www.w3.org/2000/svg"
 width="684.000000pt" height="684.000000pt" viewBox="0 0 684.000000 684.000000"
 preserveAspectRatio="xMidYMid meet">
<metadata>
Created by potrace 1.14, written by Peter Selinger 2001-2017
</metadata>
<g transform="translate(0.000000,684.000000) scale(0.100000,-0.100000)"
fill="#000000" stroke="none">
<path d="M3769 6825 c-3 -2 -14 -6 -25 -8 -10 -2 -26 -7 -34 -10 -8 -3 -55
-17 -105 -32 -49 -15 -112 -34 -139 -43 l-49 -17 -39 -135 c-22 -74 -42 -142
-45 -150 -4 -8 -7 -18 -8 -22 -2 -5 -3 -9 -5 -10 -1 -2 -3 -11 -5 -20 -2 -10
-12 -46 -23 -80 -53 -168 -95 -303 -97 -317 -2 -9 -4 -17 -5 -18 -2 -2 -4 -7
-5 -13 -1 -5 -4 -11 -5 -12 -1 -2 -4 -12 -6 -23 -1 -11 -10 -40 -19 -65 -9
-25 -19 -56 -22 -70 -6 -34 -11 -38 -63 -45 -76 -11 -104 -15 -135 -22 -16 -4
-32 -7 -35 -8 -111 -22 -140 -30 -140 -37 0 -5 -4 -7 -9 -4 -5 3 -28 -1 -52
-10 -24 -8 -51 -17 -60 -19 -8 -2 -32 -10 -52 -19 -21 -8 -38 -15 -40 -15 -21
2 -309 -129 -315 -143 -2 -5 -9 -8 -16 -8 -14 0 -223 -129 -271 -167 -16 -13
-34 -27 -40 -31 -111 -84 -156 -123 -249 -217 -154 -154 -224 -237 -316 -375
-24 -36 -46 -67 -49 -70 -3 -3 -17 -25 -30 -50 -13 -25 -31 -53 -39 -62 -8
-10 -12 -18 -8 -18 4 0 -1 -12 -11 -27 -29 -43 -111 -216 -118 -249 -2 -6 -10
-27 -18 -45 -45 -98 -116 -363 -133 -494 -3 -22 -7 -51 -10 -65 -27 -139 -26
-556 0 -683 3 -12 8 -40 10 -62 18 -138 92 -409 145 -530 5 -11 17 -38 26 -60
131 -304 313 -568 560 -810 l112 -110 -18 -51 c-10 -29 -20 -62 -23 -75 -2
-13 -9 -36 -15 -52 -6 -15 -13 -38 -15 -50 -3 -12 -26 -89 -52 -172 -92 -296
-155 -500 -158 -516 -5 -20 -66 -217 -73 -235 -3 -9 19 -20 69 -36 40 -12 76
-23 81 -24 4 -1 8 -2 10 -4 1 -1 9 -3 17 -5 8 -2 51 -15 95 -28 44 -14 86 -26
93 -28 12 -4 34 42 47 96 2 11 16 58 30 105 15 47 35 112 45 145 10 33 43 143
75 245 31 102 72 237 91 300 19 63 36 121 39 128 4 10 18 6 58 -17 55 -33 204
-106 272 -134 55 -23 99 -40 105 -41 3 -1 10 -4 15 -7 8 -5 40 -15 75 -24 3 0
28 -8 55 -17 43 -14 104 -30 112 -29 2 0 17 -5 35 -10 18 -5 44 -11 58 -14 14
-3 36 -7 50 -10 14 -3 41 -8 60 -11 19 -2 46 -6 60 -9 138 -29 568 -26 729 5
26 5 66 11 91 15 25 3 63 11 85 17 22 5 48 12 57 14 79 18 211 60 310 100 109
42 339 155 358 174 3 3 21 14 40 24 19 11 40 24 45 28 6 5 35 25 66 46 31 20
84 58 117 85 34 26 63 43 66 39 3 -5 14 -40 25 -78 11 -38 29 -100 41 -139 12
-38 23 -77 25 -85 2 -8 20 -69 40 -135 20 -66 41 -136 46 -155 6 -19 19 -62
29 -95 30 -98 62 -205 64 -218 1 -7 13 -43 25 -82 12 -38 24 -77 26 -85 9 -36
63 -211 67 -215 2 -3 69 15 149 40 79 24 144 44 144 43 0 0 19 6 43 13 40 11
43 15 37 38 -4 14 -9 33 -10 41 -2 8 -4 15 -5 15 -1 0 -3 7 -5 15 -1 8 -10 38
-20 65 -9 28 -18 57 -20 66 -2 9 -37 130 -79 270 -42 140 -83 279 -92 309 -9
30 -22 73 -31 95 -8 22 -15 42 -15 45 -1 7 -3 14 -33 119 -14 51 -28 100 -30
110 -2 9 -23 77 -46 151 -22 74 -43 143 -45 154 -2 10 -6 21 -9 24 -2 3 15 29
40 58 25 29 45 57 45 63 0 6 4 11 8 11 9 0 82 106 82 120 0 6 5 10 10 10 6 0
10 7 10 15 0 8 4 15 9 15 5 0 11 8 15 17 3 10 17 36 30 58 43 71 123 238 156
325 18 47 36 92 40 100 13 27 77 258 86 310 2 14 7 36 9 50 30 145 40 268 40
470 0 163 -7 280 -19 340 -3 14 -8 44 -10 65 -6 52 -22 130 -42 208 -9 34 -17
67 -19 72 -1 6 -5 17 -8 25 -3 8 -13 40 -22 70 -17 59 -36 109 -66 177 -11 24
-19 46 -19 49 0 27 -206 397 -230 414 -4 3 -12 15 -19 27 -52 99 -430 503
-471 503 -5 0 -10 4 -10 9 0 4 -19 21 -42 37 -23 16 -53 39 -66 52 -14 12 -31
22 -38 22 -8 0 -14 4 -14 8 0 5 -16 17 -35 28 -19 10 -35 22 -35 26 0 5 -5 8
-11 8 -6 0 -39 17 -72 37 -98 59 -167 93 -382 183 -11 4 -50 18 -86 30 l-65
22 -16 57 c-18 63 -72 245 -91 306 -6 22 -12 42 -13 45 0 3 -9 32 -19 65 -11
33 -20 62 -20 65 -7 27 -27 98 -32 110 -3 8 -7 20 -8 26 -2 6 -11 38 -21 70
-9 33 -19 64 -20 69 -3 13 -68 225 -87 285 -16 53 -17 57 -17 70 0 10 -33 14
-41 5z m-133 -823 c0 -4 8 -34 18 -67 10 -33 19 -64 20 -70 2 -5 9 -30 16 -55
8 -25 14 -49 15 -54 0 -10 -105 -9 -138 0 -15 5 -17 12 -11 37 3 18 9 37 13
42 3 6 6 12 6 15 2 23 50 168 54 164 3 -3 6 -9 7 -12z"/>
</g>
</svg>
